<?xml version="1.0" encoding="UTF-8"?>
<svg version="1.1" xmlns="http://www.w3.org/2000/svg" width="326" height="251">
<path d="M0 0 C0.6084375 0.41636719 1.216875 0.83273438 1.84375 1.26171875 C2.5346875 1.70902344 3.225625 2.15632812 3.9375 2.6171875 C12.05534089 8.26635663 19.04698797 16.25859169 20.84375 26.26171875 C20.96581278 28.94142248 21.03361413 31.58227408 21.03125 34.26171875 C21.03189453 35.0199292 21.03253906 35.77813965 21.03320312 36.55932617 C20.98258835 41.99638876 20.31154569 47.10062282 19.30078125 52.4453125 C16.97847115 66.75630037 20.28333303 80.87056879 27.9609375 93.03125 C31.28242556 97.5553458 35.84798202 99.97988846 40.84375 102.26171875 C41.9575 102.803125 43.07125 103.34453125 44.21875 103.90234375 C50.42255843 106.17965451 57.02648261 105.49446698 63.53125 105.32421875 C75.48209342 105.04267006 86.44387648 105.44189704 97.84375 109.26171875 C109.35255732 109.89837618 120.52059024 105.70599931 129.453125 98.59375 C130.96935224 97.29098615 130.96935224 97.29098615 131.84375 95.26171875 C132.50375 95.26171875 133.16375 95.26171875 133.84375 95.26171875 C135.71355777 91.55015033 137.5441483 87.82025159 139.34375 84.07421875 C139.65183594 83.45224609 139.95992187 82.83027344 140.27734375 82.18945312 C144.10894531 74.15624557 145.0512609 66.11212196 145.71875 57.32421875 C146.89529876 44.55860626 149.90727955 35.97737868 159.84375 27.26171875 C168.58194104 21.68360558 176.56026481 20.39785866 186.84375 21.26171875 C197.28814792 24.0117444 205.53392235 30.17386966 211.140625 39.39453125 C215.56045431 48.33027312 215.71722403 57.82030407 212.84375 67.26171875 C210.04739492 75.46640893 203.82345422 82.18534172 196.3046875 86.40625 C191.01804096 88.91753051 185.47016754 89.45690477 179.71875 90.19921875 C166.13714489 92.17526333 151.36935108 94.61177488 141.8828125 105.515625 C132.78973458 117.77401486 130.73574296 130.33782144 131.84375 145.26171875 C132.45217487 148.09984837 132.45217487 148.09984837 133.34375 150.57421875 C137.38120002 163.07292766 135.90796451 178.35578398 130.84375 190.26171875 C130.35261719 191.54175781 130.35261719 191.54175781 129.8515625 192.84765625 C124.03274595 206.31163322 111.04060089 217.60738497 97.70703125 223.1953125 C82.2835741 228.93965602 65.27601367 229.39546415 49.84375 223.26171875 C45.20931356 221.03684903 41.02105525 218.25414437 36.84375 215.26171875 C36.23144531 214.84019531 35.61914062 214.41867188 34.98828125 213.984375 C23.01990326 204.967983 15.78906482 190.16623747 13.50073242 175.64794922 C11.8822658 163.2074759 14.08140107 152.10166034 17.6875 140.2578125 C21.78995432 126.52931689 21.17261239 111.35005823 14.41796875 98.5625 C11.69301498 94.30255935 8.64082957 90.61727744 4.84375 87.26171875 C4.24304688 86.71902344 3.64234375 86.17632812 3.0234375 85.6171875 C-5.4043456 78.48000587 -15.18718503 74.86927559 -25.84375 72.38671875 C-35.60838195 69.93033525 -43.25282823 64.69759523 -48.9453125 56.33984375 C-55.01732637 45.91948447 -56.55815916 36.17979603 -54.15625 24.32421875 C-51.45466623 14.46914555 -44.96129538 6.38016569 -36.15625 1.26171875 C-35.47691406 0.85050781 -34.79757813 0.43929688 -34.09765625 0.015625 C-24.72249811 -4.68007812 -9.26993617 -5.24192819 0 0 Z " fill="#00B8F9" transform="translate(90.15625,11.73828125)"/>
<path d="M0 0 C8.19292829 8.01086322 12.87689772 17.89859238 13.0625 29.375 C12.9223685 40.79571696 9.51707828 49.49080994 1.84375 57.91015625 C-6.28574657 65.78928789 -16.95163918 70.19042568 -28.2734375 70.0234375 C-41.23082841 68.80759653 -50.49518154 62.63248652 -58.68359375 52.8671875 C-65.3672885 43.45793411 -66.17134152 32.93501387 -65.1875 21.75 C-63.0593189 11.31422039 -56.89611699 3.056423 -48.2265625 -2.96875 C-32.15721293 -13.06596582 -15.02468291 -10.60565852 0 0 Z " fill="#03D2F6" transform="translate(74.1875,110.25)"/>
<path d="M0 0 C9.29489772 0.29677196 16.1512029 3.5253589 22.55859375 10.28515625 C28.8327822 18.448731 30.19876142 26.9225245 29.18359375 37.03515625 C27.95359615 44.58524789 22.70975948 50.05647443 17.18359375 55.03515625 C9.69740648 60.23983883 1.66243909 61.98754053 -7.31640625 60.47265625 C-16.33458268 58.03488064 -22.30718224 53.29899227 -27.44140625 45.59765625 C-31.54544162 37.94922669 -32.13740999 29.6751303 -30.1640625 21.25 C-27.0056848 12.4797409 -21.39330863 6.10485744 -13.05859375 1.9375 C-8.62499584 0.15324718 -4.67358633 0.0583388 0 0 Z " fill="#04A6FB" transform="translate(281.81640625,121.96484375)"/>
<path d="M0 0 C0.33 0 0.66 0 1 0 C1 1.98 1 3.96 1 6 C1.66 6 2.32 6 3 6 C3.65646885 10.15763604 4.13128052 13.27795711 3.375 17.4375 C2.6989506 23.85996927 5.0822544 29.01377833 9 34 C9.35613097 35.66194453 9.69208308 37.328451 10 39 C10.66 39.66 11.32 40.32 12 41 C13.32 41 14.64 41 16 41 C16 41.66 16 42.32 16 43 C16.66 43.33 17.32 43.66 18 44 C18.103125 44.9075 18.20625 45.815 18.3125 46.75 C19.18908896 50.8938751 20.71299762 52.40097486 24 55 C25.32 55 26.64 55 28 55 C28.33 55.66 28.66 56.32 29 57 C31.31 57 33.62 57 36 57 C36 57.66 36 58.32 36 59 C36.66 59 37.32 59 38 59 C38.42667969 59.78761719 38.85335937 60.57523438 39.29296875 61.38671875 C41.4097495 64.62728242 42.59722218 64.95280784 46.3125 65.8125 C62.8512451 69.2713241 79.75020597 66.20020259 94 57 C102.50097432 50.45180879 108.51183836 43.24916652 114 34 C114.33 34.99 114.66 35.98 115 37 C106.56307168 52.04832245 93.04173058 62.54680583 76.6875 67.5 C60.53852702 71.24468939 43.15029984 69.91990418 28.875 61.0625 C26.89731951 59.73674863 24.93554956 58.38653695 23 57 C22.38769531 56.57847656 21.77539062 56.15695313 21.14453125 55.72265625 C9.01085182 46.58173421 2.03730602 31.78924306 -0.35400391 17.14453125 C-1.15021459 11.33152415 -1.03788056 5.7896229 0 0 Z " fill="#12D3F3" transform="translate(104,170)"/>
<path d="M0 0 C0.6084375 0.41636719 1.216875 0.83273438 1.84375 1.26171875 C2.5346875 1.70902344 3.225625 2.15632812 3.9375 2.6171875 C10.49220805 7.17857948 15.90339012 12.30624323 17.84375 20.26171875 C15.61718659 18.15268654 13.89242127 15.97139306 12.15625 13.44921875 C6.42989782 5.80004734 -0.86774839 1.45966632 -10.15625 -0.73828125 C-19.92014601 -1.87569846 -29.7713091 -0.60801999 -37.71875 5.44921875 C-38.33878906 5.97902344 -38.95882812 6.50882813 -39.59765625 7.0546875 C-41.15625 8.26171875 -41.15625 8.26171875 -43.15625 8.26171875 C-43.4346875 8.84179688 -43.713125 9.421875 -44 10.01953125 C-45.45393165 12.83897978 -47.18432272 15.42595023 -48.9375 18.06640625 C-52.1855978 23.91714652 -52.41639305 29.11866561 -52.28125 35.63671875 C-52.27222656 36.46816406 -52.26320312 37.29960938 -52.25390625 38.15625 C-52.2305122 40.19153212 -52.19464725 42.22666439 -52.15625 44.26171875 C-52.81625 44.26171875 -53.47625 44.26171875 -54.15625 44.26171875 C-56.57982488 35.66193694 -55.33704696 26.50625935 -52.15625 18.26171875 C-48.1384876 11.1775262 -43.22334134 5.36987839 -36.15625 1.26171875 C-35.47691406 0.85050781 -34.79757813 0.43929688 -34.09765625 0.015625 C-24.72249811 -4.68007812 -9.26993617 -5.24192819 0 0 Z " fill="#4BD3F7" transform="translate(90.15625,11.73828125)"/>
<path d="M0 0 C0.495 1.485 0.495 1.485 1 3 C-7.43692832 18.04832245 -20.95826942 28.54680583 -37.3125 33.5 C-52.12797875 36.93547333 -69.72074665 36.44159565 -83 28.25 C-83.99 27.5075 -84.98 26.765 -86 26 C-85.34 25.67 -84.68 25.34 -84 25 C-81.8203125 25.890625 -81.8203125 25.890625 -79.125 27.25 C-63.34934239 34.61470882 -48.39755122 34.67949928 -32 29 C-17.3586256 23.42660044 -7.82948456 13.19498427 0 0 Z " fill="#2BCFF2" transform="translate(218,204)"/>
<path d="M0 0 C8.41738693 6.73390955 13.44863284 14.40372447 14.6875 25.1875 C14.9296875 27.96484375 14.9296875 27.96484375 14.8125 30.25 C14.1525 30.91 13.4925 31.57 12.8125 32.25 C12.73773438 31.36699219 12.66296875 30.48398438 12.5859375 29.57421875 C11.41199826 18.85914587 8.95650727 10.26457676 0.375 3.25 C-5.71508122 -1.23624768 -11.75679898 -3.3333553 -19.3125 -3.3125 C-20.045896 -3.31443359 -20.77929199 -3.31636719 -21.53491211 -3.31835938 C-29.02339753 -3.10386874 -34.72709427 -0.52512405 -41.1875 3.25 C-40.18975828 0.69127528 -39.54411889 -0.53313716 -37.1640625 -1.98046875 C-36.38804687 -2.29628906 -35.61203125 -2.61210938 -34.8125 -2.9375 C-34.04164063 -3.26105469 -33.27078125 -3.58460937 -32.4765625 -3.91796875 C-20.88261824 -8.13214986 -10.47052995 -5.74852625 0 0 Z " fill="#4FBCF8" transform="translate(290.1875,38.75)"/>
<path d="M0 0 C0.33 0 0.66 0 1 0 C0.27278014 10.18107805 -3.37349643 16.04916327 -10.75390625 23.078125 C-14.83151652 26.56714109 -17.63663815 28 -23 28 C-23 27.34 -23 26.68 -23 26 C-22.360625 25.87625 -21.72125 25.7525 -21.0625 25.625 C-20.381875 25.41875 -19.70125 25.2125 -19 25 C-18.67 24.34 -18.34 23.68 -18 23 C-18.66 22.67 -19.32 22.34 -20 22 C-14.25 20.875 -14.25 20.875 -12 22 C-12.185625 21.236875 -12.37125 20.47375 -12.5625 19.6875 C-13 17 -13 17 -12 14 C-11.21625 14.061875 -10.4325 14.12375 -9.625 14.1875 C-8.75875 14.125625 -7.8925 14.06375 -7 14 C-6.34 13.01 -5.68 12.02 -5 11 C-4.34 11 -3.68 11 -3 11 C-2.01 7.37 -1.02 3.74 0 0 Z " fill="#069BF7" transform="translate(303,71)"/>
<path d="M0 0 C3.58991524 0.96314799 6.37513061 2.14452091 9.3125 4.375 C13.22744934 7.33315679 17.4730707 9.1625389 22 11 C18.93753253 12.78409802 16.77920727 13.22880021 13.25 13.125 C12.45078125 13.10695313 11.6515625 13.08890625 10.828125 13.0703125 C10.22484375 13.04710938 9.6215625 13.02390625 9 13 C8.690625 12.195625 8.38125 11.39125 8.0625 10.5625 C7.23664655 8.10919595 7.23664655 8.10919595 6 7 C5.34 7 4.68 7 4 7 C4 6.01 4 5.02 4 4 C2.68 3.67 1.36 3.34 0 3 C0 2.01 0 1.02 0 0 Z " fill="#05BFF3" transform="translate(115,106)"/>
<path d="M0 0 C0.66 0.33 1.32 0.66 2 1 C0.60878255 3.7824349 -1.30164212 4.55210065 -4 6 C-4.66 6 -5.32 6 -6 6 C-6.12375 6.78375 -6.2475 7.5675 -6.375 8.375 C-7 11 -7 11 -9 13 C-9.34153937 14.66500443 -9.67449498 16.33178677 -10 18 C-10.66 18.99 -11.32 19.98 -12 21 C-11.7215625 22.0828125 -11.7215625 22.0828125 -11.4375 23.1875 C-10.80075133 27.2808843 -12.3671648 30.28230178 -14 34 C-14.33 34 -14.66 34 -15 34 C-15.41414637 23.02512117 -13.74574641 13.91698175 -7 5 C-4.67621979 2.83465935 -2.80532169 1.40266084 0 0 Z " fill="#049EF7" transform="translate(251,40)"/>
<path d="M0 0 C0.33 0.99 0.66 1.98 1 3 C1.66 3 2.32 3 3 3 C2.04977157 9.65159901 0.03926767 15.17526302 -3.09765625 21.0703125 C-4.01466752 23.03136691 -4.5448252 24.88836434 -5 27 C-5.66 27 -6.32 27 -7 27 C-6.60167969 25.44152344 -6.60167969 25.44152344 -6.1953125 23.8515625 C-4.41515074 16.83612595 -2.66808583 9.85218143 -1.39453125 2.72265625 C-1 1 -1 1 0 0 Z " fill="#0ECDF4" transform="translate(111,141)"/>
<path d="M0 0 C2.0625 0.4375 2.0625 0.4375 4 1 C3.01 1.495 3.01 1.495 2 2 C3.69492129 4.91739065 4.52523695 5.87365702 7.84765625 6.7578125 C8.90855469 6.87898437 9.96945312 7.00015625 11.0625 7.125 C16.80742779 7.80742779 16.80742779 7.80742779 19 10 C18.01 11.485 18.01 11.485 17 13 C10.93159359 12.68061019 5.65197805 9.78182388 1 6 C-0.296875 3.296875 -0.296875 3.296875 -1 1 C-0.67 0.67 -0.34 0.34 0 0 Z " fill="#07AEF6" transform="translate(259,169)"/>
<path d="M0 0 C0.99 0.495 0.99 0.495 2 1 C3.32860925 1.35169068 4.66158328 1.68770276 6 2 C6 1.34 6 0.68 6 0 C8.97 0 11.94 0 15 0 C13 4 13 4 9.9609375 5.046875 C8.77757812 5.27890625 7.59421875 5.5109375 6.375 5.75 C4.59222656 6.11351563 4.59222656 6.11351563 2.7734375 6.484375 C1.40058594 6.73960938 1.40058594 6.73960938 0 7 C0 4.69 0 2.38 0 0 Z " fill="#02A2F7" transform="translate(248,99)"/>
<path d="M0 0 C3.4375 1.3125 3.4375 1.3125 7 3 C8 6 8 6 7 9 C4.9375 10.1875 4.9375 10.1875 3 11 C2.49384702 9.73160474 1.99530901 8.46016898 1.5 7.1875 C1.2215625 6.47980469 0.943125 5.77210937 0.65625 5.04296875 C0 3 0 3 0 0 Z " fill="#06C3F5" transform="translate(107,113)"/>
<path d="M0 0 C0.66 0.33 1.32 0.66 2 1 C2.33 0.67 2.66 0.34 3 0 C5.0625 0.4375 5.0625 0.4375 7 1 C6.278125 1.680625 5.55625 2.36125 4.8125 3.0625 C2.69082759 5.16006249 0.99424049 7.34995143 -0.6875 9.8125 C-1.450625 10.864375 -2.21375 11.91625 -3 13 C-3.66 13 -4.32 13 -5 13 C-4.34 11.02 -3.68 9.04 -3 7 C-2.34 7 -1.68 7 -1 7 C-1.20625 6.401875 -1.4125 5.80375 -1.625 5.1875 C-2 3 -2 3 0 0 Z " fill="#08ACF3" transform="translate(229,113)"/>
<path d="M0 0 C0.66 0 1.32 0 2 0 C1.75 2.375 1.75 2.375 1 5 C-0.32467746 5.6837045 -1.65863633 6.34964186 -3 7 C-4.49481868 9.91489643 -5 11.70776216 -5 15 C-5.66 15 -6.32 15 -7 15 C-8.01441735 11.87871585 -8.40042468 9.83372004 -6.953125 6.8203125 C-5.69294439 4.83092625 -4.39266782 2.8986544 -3 1 C-2.01 1.33 -1.02 1.66 0 2 C0 1.34 0 0.68 0 0 Z " fill="#06AAF7" transform="translate(231,98)"/>
<path d="M0 0 C0.33 0 0.66 0 1 0 C0.52162377 6.69726716 -0.71689357 12.68478495 -5.59765625 17.61328125 C-7.01584165 18.80348413 -8.50267309 19.91103497 -10 21 C-8.85569823 17.12697862 -7.76679902 13.99736561 -5 11 C-4.34 11 -3.68 11 -3 11 C-2.01 7.37 -1.02 3.74 0 0 Z " fill="#1CA4F4" transform="translate(303,71)"/>
<path d="M0 0 C0 3 0 3 -1 6 C-2.32 5.34 -3.64 4.68 -5 4 C-5 3.34 -5 2.68 -5 2 C-5.55171875 2.16371094 -6.1034375 2.32742187 -6.671875 2.49609375 C-9.26614007 3.05760414 -11.59835411 3.09739008 -14.25 3.0625 C-15.14203125 3.05347656 -16.0340625 3.04445313 -16.953125 3.03515625 C-17.62859375 3.02355469 -18.3040625 3.01195313 -19 3 C-19 2.67 -19 2.34 -19 2 C-16.20962572 1.47120316 -13.41807402 0.95165912 -10.625 0.4375 C-9.8309375 0.28603516 -9.036875 0.13457031 -8.21875 -0.02148438 C-2.2265625 -1.11328125 -2.2265625 -1.11328125 0 0 Z " fill="#19B9F4" transform="translate(206,120)"/>
<path d="M0 0 C1.0828125 0.2475 1.0828125 0.2475 2.1875 0.5 C1.5275 1.82 0.8675 3.14 0.1875 4.5 C-1.070625 4.37625 -2.32875 4.2525 -3.625 4.125 C-4.68654297 4.02058594 -4.68654297 4.02058594 -5.76953125 3.9140625 C-7.8125 3.5 -7.8125 3.5 -10.8125 1.5 C-6.87131468 -1.12745688 -4.56177353 -0.81098196 0 0 Z " fill="#02CBF5" transform="translate(155.8125,232.5)"/>
<path d="M0 0 C0.66 0.66 1.32 1.32 2 2 C5.58343976 2.16677282 5.58343976 2.16677282 9 2 C9 2.66 9 3.32 9 4 C9.66 4 10.32 4 11 4 C11.66 5.32 12.32 6.64 13 8 C12.01 8.495 12.01 8.495 11 9 C8.3984375 7.78515625 8.3984375 7.78515625 5.375 6.0625 C4.37210938 5.49660156 3.36921875 4.93070313 2.3359375 4.34765625 C1.56507813 3.90292969 0.79421875 3.45820313 0 3 C0 2.01 0 1.02 0 0 Z " fill="#03CEF6" transform="translate(131,225)"/>
<path d="M0 0 C1.41623216 -0.05447047 2.83308191 -0.09300508 4.25 -0.125 C5.03890625 -0.14820312 5.8278125 -0.17140625 6.640625 -0.1953125 C9.20731941 0.0171622 10.7916067 0.71345895 13 2 C11.68 2 10.36 2 9 2 C9 2.66 9 3.32 9 4 C9.99 4 10.98 4 12 4 C12 4.66 12 5.32 12 6 C10.5608866 5.71640113 9.12374482 5.42278601 7.6875 5.125 C6.88699219 4.96257812 6.08648437 4.80015625 5.26171875 4.6328125 C3 4 3 4 0 2 C0 1.34 0 0.68 0 0 Z " fill="#05CAF3" transform="translate(54,78)"/>
<path d="M0 0 C3.68872232 1.16485968 7.24690475 2.50923631 10.8125 4 C15.49178036 5.90295468 20.04532459 7.04103057 25 8 C24.67 8.66 24.34 9.32 24 10 C6.83960541 6.27219583 6.83960541 6.27219583 0 1 C0 0.67 0 0.34 0 0 Z " fill="#40DAF6" transform="translate(132,229)"/>
<path d="M0 0 C2.31 0.33 4.62 0.66 7 1 C7 1.66 7 2.32 7 3 C7.66 3.33 8.32 3.66 9 4 C6.69 4.33 4.38 4.66 2 5 C2 4.34 2 3.68 2 3 C-2.29 3 -6.58 3 -11 3 C-11 2.67 -11 2.34 -11 2 C-5.555 1.505 -5.555 1.505 0 1 C0 0.67 0 0.34 0 0 Z " fill="#02C7F3" transform="translate(171,232)"/>
<path d="M0 0 C4.05174027 2.13841847 6.18358031 4.43805745 9 8 C11.26767421 10.08115555 13.61724044 12.05229485 16 14 C15.01 14.495 15.01 14.495 14 15 C8.68869838 11.08884543 3.87683384 7.37754372 0 2 C0 1.34 0 0.68 0 0 Z " fill="#1EDAF3" transform="translate(116,214)"/>
<path d="M0 0 C0.66 0.66 1.32 1.32 2 2 C-0.97 3.65 -3.94 5.3 -7 7 C-7.33 5.02 -7.66 3.04 -8 1 C-5.23749964 -0.38125018 -3.05268901 -0.19079306 0 0 Z " fill="#04ABF7" transform="translate(243,106)"/>
<path d="M0 0 C2 2 2 2 3.4375 5 C4.80851764 8.22025543 4.80851764 8.22025543 8 10 C8.71727778 11.64551962 9.38325228 13.31422289 10 15 C10.99 16.485 10.99 16.485 12 18 C8.26908692 16.51751798 6.59076134 14.51171905 4.3125 11.25 C3.71050781 10.40953125 3.10851563 9.5690625 2.48828125 8.703125 C0.86408701 5.75314492 0.36488565 3.32775711 0 0 Z " fill="#0FD0F3" transform="translate(37,57)"/>
<path d="M0 0 C4.875 3.625 4.875 3.625 6 7 C3.36 7 0.72 7 -2 7 C-2 5.35 -2 3.7 -2 2 C-1.34 2 -0.68 2 0 2 C0 1.34 0 0.68 0 0 Z " fill="#0797F7" transform="translate(292,43)"/>
<path d="M0 0 C2.32749345 3.49124017 2.50299316 4.89222251 2 9 C0 11.375 0 11.375 -2 13 C-1.85769192 11.58297487 -1.71099254 10.1663904 -1.5625 8.75 C-1.48128906 7.96109375 -1.40007812 7.1721875 -1.31640625 6.359375 C-1.02365007 4.17635361 -0.57935581 2.1226818 0 0 Z " fill="#01A0F7" transform="translate(236,75)"/>
<path d="M0 0 C0.66 0.33 1.32 0.66 2 1 C1.34 1.66 0.68 2.32 0 3 C-0.16687448 5.58354218 -0.16687448 5.58354218 0 8 C-0.99 7.67 -1.98 7.34 -3 7 C-4.1875 4.4375 -4.1875 4.4375 -5 2 C-2.625 0.9375 -2.625 0.9375 0 0 Z " fill="#049AF8" transform="translate(262,35)"/>
<path d="M0 0 C0.66 0.33 1.32 0.66 2 1 C2 2.65 2 4.3 2 6 C0.35 6.33 -1.3 6.66 -3 7 C-3.33 6.01 -3.66 5.02 -4 4 C-2.68 2.68 -1.36 1.36 0 0 Z " fill="#04ABF7" transform="translate(218,113)"/>
<path d="M0 0 C2.375 0.3125 2.375 0.3125 5 1 C5.66 1.99 6.32 2.98 7 4 C6.01 4 5.02 4 4 4 C4.66 4.66 5.32 5.32 6 6 C4.68 6 3.36 6 2 6 C1.34 4.02 0.68 2.04 0 0 Z " fill="#04C9F1" transform="translate(66,107)"/>
<path d="M0 0 C0.66 0.33 1.32 0.66 2 1 C-1.90102388 3.78644563 -5.38486888 5.68139111 -10 7 C-10 6.34 -10 5.68 -10 5 C-9.34 5 -8.68 5 -8 5 C-7.67 4.34 -7.34 3.68 -7 3 C-4.69467163 1.69364726 -2.52428777 0.84142926 0 0 Z " fill="#09D8F0" transform="translate(69,171)"/>
<path d="M0 0 C0.66 0 1.32 0 2 0 C2 0.66 2 1.32 2 2 C2.66 2.33 3.32 2.66 4 3 C3.34 4.32 2.68 5.64 2 7 C0.4375 5.75 0.4375 5.75 -1 4 C-0.6875 1.8125 -0.6875 1.8125 0 0 Z " fill="#03CEF7" transform="translate(118,211)"/>
<path d="M0 0 C0.66 0.33 1.32 0.66 2 1 C0.92456217 1.98783194 -0.16073217 2.96493943 -1.25 3.9375 C-2.15492188 4.75541016 -2.15492188 4.75541016 -3.078125 5.58984375 C-5.08467305 7.06212799 -6.57002449 7.57529189 -9 8 C-9 7.34 -9 6.68 -9 6 C-7.03125 4.4921875 -7.03125 4.4921875 -4.5 2.875 C-3.6646875 2.33617188 -2.829375 1.79734375 -1.96875 1.2421875 C-1.3190625 0.83226563 -0.669375 0.42234375 0 0 Z " fill="#11B5F2" transform="translate(220,110)"/>
<path d="M0 0 C3.65316671 1.24976756 4.78065836 1.67098753 7 5 C6.01 5.66 5.02 6.32 4 7 C3.896875 6.360625 3.79375 5.72125 3.6875 5.0625 C3.460625 4.381875 3.23375 3.70125 3 3 C2.01 2.67 1.02 2.34 0 2 C0 1.34 0 0.68 0 0 Z " fill="#05C8F2" transform="translate(73,113)"/>
<path d="M0 0 C3.48670834 1.1094072 6.77484237 2.26337666 10 4 C10 4.66 10 5.32 10 6 C5.56909529 4.79157144 3.01887244 3.48331435 0 0 Z " fill="#2EE0F1" transform="translate(132,229)"/>
<path d="M0 0 C1.875 0.1875 1.875 0.1875 4 1 C5.25 3.5625 5.25 3.5625 6 6 C3.37812506 4.95125002 2.20628639 4.35068687 0.75 1.875 C0.5025 1.25625 0.255 0.6375 0 0 Z " fill="#04CEF6" transform="translate(122,218)"/>
<path d="M0 0 C2.475 0.99 2.475 0.99 5 2 C3.68 2.99 2.36 3.98 1 5 C0.34 4.67 -0.32 4.34 -1 4 C-0.67 2.68 -0.34 1.36 0 0 Z " fill="#0796F8" transform="translate(284,38)"/>
</svg>
